<svg width="1920" height="989" viewBox="0 0 1920 989" fill="none" xmlns="http://www.w3.org/2000/svg">
<g clip-path="url(#clip0_629_461)">
<rect width="1920" height="989" fill="#F5F5FF"/>
<g opacity="0.06">
<path d="M340.491 249.611H190.777V845.534H340.491V249.611Z" fill="#565875"/>
<path d="M316.027 206.891H215.238V457.315H316.027V206.891Z" fill="#565875"/>
<path d="M293.59 179.789H237.684V318.696H293.59V179.789Z" fill="#565875"/>
<path d="M284.684 251.169H246.584V156.506H260.329H273.948H284.684V251.169Z" fill="#565875"/>
<path d="M263.122 209.943H258.99V115.28H260.484H261.959H263.122V209.943Z" fill="#565875"/>
<path d="M272.277 177.221H268.145V82.5586H269.634H271.113H272.277V177.221Z" fill="#565875"/>
<path d="M344.483 248.085H186.783V254.429H344.483V248.085Z" fill="#565875"/>
<path d="M319.711 203.837H211.566V209.948H319.711V203.837Z" fill="#565875"/>
<path d="M295.931 177.221H233.609V181.909H295.931V177.221Z" fill="#565875"/>
<path opacity="0.29" d="M229.19 217.052H224.506V243.293H229.19V217.052Z" fill="#565875"/>
<path opacity="0.29" d="M242.159 217.052H237.471V243.293H242.159V217.052Z" fill="#565875"/>
<path opacity="0.29" d="M255.127 217.052H250.439V243.293H255.127V217.052Z" fill="#565875"/>
<path opacity="0.29" d="M268.092 217.052H263.404V243.293H268.092V217.052Z" fill="#565875"/>
<path opacity="0.29" d="M281.053 217.052H276.365V243.293H281.053V217.052Z" fill="#565875"/>
<path opacity="0.29" d="M294.022 217.052H289.334V243.293H294.022V217.052Z" fill="#565875"/>
<path opacity="0.29" d="M306.981 217.052H302.293V243.293H306.981V217.052Z" fill="#565875"/>
<path d="M215.239 273.374H203.918V304.507H215.239V273.374Z" fill="#565875"/>
<path opacity="0.29" d="M237.663 273.374H226.342V304.507H237.663V273.374Z" fill="#565875"/>
<path d="M260.085 273.374H248.764V304.507H260.085V273.374Z" fill="#565875"/>
<path d="M282.507 273.374H271.186V304.507H282.507V273.374Z" fill="#565875"/>
<path d="M304.927 273.374H293.605V304.507H304.927V273.374Z" fill="#565875"/>
<path d="M327.351 273.374H316.029V304.507H327.351V273.374Z" fill="#565875"/>
<path d="M215.239 321.898H203.918V353.031H215.239V321.898Z" fill="#565875"/>
<path d="M237.663 321.898H226.342V353.031H237.663V321.898Z" fill="#565875"/>
<path d="M260.085 321.898H248.764V353.031H260.085V321.898Z" fill="#565875"/>
<path opacity="0.29" d="M282.507 321.898H271.186V353.031H282.507V321.898Z" fill="#565875"/>
<path d="M304.927 321.898H293.605V353.031H304.927V321.898Z" fill="#565875"/>
<path d="M327.351 321.898H316.029V353.031H327.351V321.898Z" fill="#565875"/>
<path d="M215.239 370.428H203.918V401.561H215.239V370.428Z" fill="#565875"/>
<path d="M237.663 370.427H226.342V401.56H237.663V370.427Z" fill="#565875"/>
<path d="M260.085 370.428H248.764V401.561H260.085V370.428Z" fill="#565875"/>
<path d="M282.507 370.427H271.186V401.56H282.507V370.427Z" fill="#565875"/>
<path opacity="0.29" d="M304.927 370.428H293.605V401.561H304.927V370.428Z" fill="#565875"/>
<path opacity="0.29" d="M327.351 370.427H316.029V401.56H327.351V370.427Z" fill="#565875"/>
<path opacity="0.29" d="M215.239 418.951H203.918V450.084H215.239V418.951Z" fill="#565875"/>
<path d="M237.663 418.951H226.342V450.084H237.663V418.951Z" fill="#565875"/>
<path d="M260.085 418.951H248.764V450.084H260.085V418.951Z" fill="#565875"/>
<path d="M282.507 418.951H271.186V450.084H282.507V418.951Z" fill="#565875"/>
<path d="M304.927 418.951H293.605V450.084H304.927V418.951Z" fill="#565875"/>
<path d="M327.351 418.951H316.029V450.084H327.351V418.951Z" fill="#565875"/>
<path d="M215.239 467.479H203.918V498.613H215.239V467.479Z" fill="#565875"/>
<path opacity="0.29" d="M237.663 467.479H226.342V498.613H237.663V467.479Z" fill="#565875"/>
<path d="M260.085 467.479H248.764V498.613H260.085V467.479Z" fill="#565875"/>
<path opacity="0.29" d="M282.507 467.479H271.186V498.613H282.507V467.479Z" fill="#565875"/>
<path d="M304.927 467.479H293.605V498.613H304.927V467.479Z" fill="#565875"/>
<path d="M327.351 467.479H316.029V498.613H327.351V467.479Z" fill="#565875"/>
<path d="M215.239 516.008H203.918V547.141H215.239V516.008Z" fill="#565875"/>
<path d="M237.663 516.008H226.342V547.141H237.663V516.008Z" fill="#565875"/>
<path d="M260.085 516.008H248.764V547.141H260.085V516.008Z" fill="#565875"/>
<path d="M282.507 516.008H271.186V547.141H282.507V516.008Z" fill="#565875"/>
<path d="M304.927 516.008H293.605V547.141H304.927V516.008Z" fill="#565875"/>
<path opacity="0.29" d="M327.351 516.008H316.029V547.141H327.351V516.008Z" fill="#565875"/>
<path d="M215.239 564.532H203.918V595.665H215.239V564.532Z" fill="#565875"/>
<path opacity="0.29" d="M237.663 564.532H226.342V595.665H237.663V564.532Z" fill="#565875"/>
<path opacity="0.29" d="M260.085 564.532H248.764V595.665H260.085V564.532Z" fill="#565875"/>
<path d="M282.507 564.532H271.186V595.665H282.507V564.532Z" fill="#565875"/>
<path d="M304.927 564.532H293.605V595.665H304.927V564.532Z" fill="#565875"/>
<path d="M327.351 564.532H316.029V595.665H327.351V564.532Z" fill="#565875"/>
<path d="M215.239 613.061H203.918V644.194H215.239V613.061Z" fill="#565875"/>
<path d="M237.663 613.062H226.342V644.195H237.663V613.062Z" fill="#565875"/>
<path d="M260.085 613.062H248.764V644.195H260.085V613.062Z" fill="#565875"/>
<path d="M282.507 613.062H271.186V644.195H282.507V613.062Z" fill="#565875"/>
<path opacity="0.29" d="M304.927 613.062H293.605V644.195H304.927V613.062Z" fill="#565875"/>
<path d="M327.351 613.062H316.029V644.195H327.351V613.062Z" fill="#565875"/>
<path d="M215.239 661.586H203.918V692.719H215.239V661.586Z" fill="#565875"/>
<path opacity="0.29" d="M237.663 661.586H226.342V692.719H237.663V661.586Z" fill="#565875"/>
<path d="M260.085 661.586H248.764V692.719H260.085V661.586Z" fill="#565875"/>
<path d="M282.507 661.586H271.186V692.719H282.507V661.586Z" fill="#565875"/>
<path d="M304.927 661.586H293.605V692.719H304.927V661.586Z" fill="#565875"/>
<path d="M327.351 661.586H316.029V692.719H327.351V661.586Z" fill="#565875"/>
<path d="M215.239 710.113H203.918V741.246H215.239V710.113Z" fill="#565875"/>
<path d="M237.663 710.114H226.342V741.247H237.663V710.114Z" fill="#565875"/>
<path d="M260.085 710.113H248.764V741.246H260.085V710.113Z" fill="#565875"/>
<path opacity="0.29" d="M282.507 710.114H271.186V741.247H282.507V710.114Z" fill="#565875"/>
<path d="M304.927 710.113H293.605V741.246H304.927V710.113Z" fill="#565875"/>
<path opacity="0.29" d="M327.351 710.113H316.029V741.246H327.351V710.113Z" fill="#565875"/>
<path opacity="0.29" d="M215.239 758.64H203.918V789.773H215.239V758.64Z" fill="#565875"/>
<path d="M237.663 758.64H226.342V789.773H237.663V758.64Z" fill="#565875"/>
<path opacity="0.29" d="M260.085 758.64H248.764V789.773H260.085V758.64Z" fill="#565875"/>
<path d="M282.507 758.64H271.186V789.773H282.507V758.64Z" fill="#565875"/>
<path d="M304.927 758.64H293.605V789.773H304.927V758.64Z" fill="#565875"/>
<path d="M327.351 758.64H316.029V789.773H327.351V758.64Z" fill="#565875"/>
<path d="M3.47586 263.646H-250.869V277.836H3.47586V263.646Z" fill="#565875"/>
<path d="M1989.61 812.507H1726.17L1693.29 74.4131L1989.61 135.923V812.507Z" fill="#565875"/>
<path d="M821.875 456.388V245.529H786.57V189.049H773.957V106.209H704.468V45.3298H698.283V106.209H684.67V30H678.488V106.209H634.557V245.529H611.865V456.388H592.412V840.451H835.552V456.388H821.875Z" fill="#565875"/>
<path d="M2567.28 803.358H-580.377V878.221H2567.28V803.358Z" fill="#565875"/>
<path d="M1272.44 859.875H1133.05L1187.36 580.768H1272.44V859.875Z" fill="#5057EA"/>
<path d="M2611.59 870.75H-693.307V988.793H2611.59V870.75Z" fill="#5057EA"/>
<path d="M1158.21 343.389V219.709H1113.46V172.623H1089.51V133.066H1081.11V65.2637H1078.94V133.066H1070.53V172.623H1046.59V219.709H1002.18V343.389H992.949V567.935H924.09V823.907H992.949H1061.81H1167.1V343.389H1158.21Z" fill="#5057EA"/>
<path d="M1415.41 485.462H1198.79V489.401H1208.59V855.693H1405.61V489.401H1415.41V485.462Z" fill="#5057EA"/>
<path d="M427.611 576.7H235.551V881.827H427.611V576.7Z" fill="#5057EA"/>
<path d="M206.62 733.028H-123.691V881.823H206.62V733.028Z" fill="#5057EA"/>
<path d="M125.87 400.594H53.3574V765.992H125.87V400.594Z" fill="#5057EA"/>
<path d="M73.1344 303.122H69.3691V501.831H73.1344V303.122Z" fill="#5057EA"/>
<path d="M85.3804 318.189H81.6152V516.898H85.3804V318.189Z" fill="#5057EA"/>
<path d="M103.279 377.991H58.957V426.961H103.279V377.991Z" fill="#5057EA"/>
<path d="M319.87 631.322H193.678V881.824H319.87V631.322Z" fill="#5057EA"/>
<path d="M695.631 366.225H458.748V881.822H695.631V366.225Z" fill="#5057EA"/>
<path d="M672.359 348.504H482.021V434.38H672.359V348.504Z" fill="#5057EA"/>
<path d="M713.993 377.013H440.385V383.042H713.993V377.013Z" fill="#5057EA"/>
<path d="M527.445 621.434H415.828V881.827H527.445V621.434Z" fill="#5057EA"/>
<path d="M2005.91 765.988H672.359V881.823H2005.91V765.988Z" fill="#5057EA"/>
<path d="M1899.42 445.342C1891.02 445.342 1884.14 451.801 1883.46 460.021L1864.69 459.409C1864.74 457.571 1864.77 455.729 1864.77 453.884C1864.77 430.526 1860.74 407.786 1853.01 386.459L1868.69 380.685C1871.15 386.37 1876.81 390.347 1883.4 390.347C1892.25 390.347 1899.42 383.172 1899.42 374.322C1899.42 365.473 1892.25 358.298 1883.4 358.298C1874.55 358.298 1867.37 365.473 1867.37 374.322C1867.37 375.957 1867.62 377.532 1868.07 379.018L1852.4 384.788C1843.47 360.829 1829.85 338.691 1812 319.513L1824.27 308.017C1827.15 310.767 1831.05 312.457 1835.34 312.457C1844.19 312.457 1851.36 305.282 1851.36 296.432C1851.36 287.583 1844.19 280.408 1835.34 280.408C1826.49 280.408 1819.32 287.583 1819.32 296.432C1819.32 300.349 1820.72 303.937 1823.06 306.724L1810.79 318.223C1809.53 316.889 1808.24 315.566 1806.93 314.261C1788.36 295.684 1766.73 281.264 1743.18 271.47L1749.93 255.038C1751.46 255.523 1753.09 255.786 1754.78 255.786C1763.63 255.786 1770.81 248.612 1770.81 239.762C1770.81 230.913 1763.63 223.738 1754.78 223.738C1745.93 223.738 1738.76 230.913 1738.76 239.762C1738.76 246.292 1742.66 251.906 1748.27 254.404L1741.53 270.799C1720.47 262.261 1697.89 257.402 1674.61 256.561L1675.34 234.1C1675.51 234.103 1675.68 234.111 1675.85 234.111C1684.7 234.111 1691.87 226.936 1691.87 218.087C1691.87 209.237 1684.7 202.062 1675.85 202.062C1667 202.062 1659.82 209.237 1659.82 218.087C1659.82 226.162 1665.8 232.836 1673.56 233.948L1672.83 256.505C1670.99 256.454 1669.15 256.428 1667.31 256.428C1644.89 256.428 1623.05 260.141 1602.47 267.267L1596.01 248.934C1601.84 246.537 1605.94 240.804 1605.94 234.111C1605.94 225.261 1598.77 218.087 1589.92 218.087C1581.07 218.087 1573.89 225.261 1573.89 234.111C1573.89 242.96 1581.06 250.135 1589.92 250.135C1591.45 250.135 1592.92 249.916 1594.33 249.516L1600.79 267.853C1575.84 276.754 1552.8 290.707 1532.93 309.188L1521.22 296.692C1523.84 293.838 1525.44 290.036 1525.44 285.856C1525.44 277.006 1518.27 269.832 1509.42 269.832C1500.57 269.832 1493.39 277.006 1493.39 285.856C1493.39 294.706 1500.56 301.88 1509.42 301.88C1513.45 301.88 1517.13 300.387 1519.95 297.93L1531.64 310.407C1530.3 311.671 1528.98 312.953 1527.68 314.258C1511.15 330.782 1497.92 349.719 1488.3 370.276L1473.41 363.401C1473.95 361.797 1474.24 360.081 1474.24 358.295C1474.24 349.445 1467.07 342.27 1458.22 342.27C1449.37 342.27 1442.2 349.445 1442.2 358.295C1442.2 367.144 1449.37 374.319 1458.22 374.319C1464.65 374.319 1470.2 370.524 1472.75 365.054L1487.54 371.884C1476.92 395.135 1470.91 420.409 1469.96 446.579L1450.86 445.957C1450.62 437.311 1443.54 430.377 1434.84 430.377C1425.99 430.377 1418.82 437.552 1418.82 446.402C1418.82 455.251 1425.99 462.426 1434.84 462.426C1443.24 462.426 1450.13 455.959 1450.81 447.736L1469.9 448.358C1469.85 450.196 1469.83 452.038 1469.83 453.884C1469.83 477.242 1473.86 499.981 1481.59 521.308L1465.91 527.082C1463.44 521.397 1457.79 517.421 1451.2 517.421C1442.35 517.421 1435.17 524.595 1435.17 533.445C1435.17 542.295 1442.35 549.469 1451.2 549.469C1460.05 549.469 1467.23 542.295 1467.23 533.445C1467.23 531.811 1466.98 530.236 1466.52 528.75L1482.2 522.976C1491.13 546.934 1504.75 569.073 1522.59 588.251L1510.32 599.747C1507.45 597.001 1503.55 595.307 1499.26 595.307C1490.41 595.307 1483.23 602.482 1483.23 611.331C1483.23 620.181 1490.41 627.355 1499.26 627.355C1508.11 627.355 1515.29 620.181 1515.29 611.331C1515.29 607.414 1513.88 603.827 1511.54 601.04L1523.81 589.544C1525.08 590.879 1526.36 592.202 1527.66 593.506C1540.18 606.017 1554.07 616.642 1569.01 625.239L1472.38 803.347H1455.03V808.439H1446.54V818.552H1888.05V808.439H1879.55V803.347H1862.21L1765.58 625.239C1778.45 617.828 1790.55 608.911 1801.66 598.579L1817.32 615.289C1813.96 618.228 1811.83 622.541 1811.83 627.359C1811.83 636.209 1819.01 643.383 1827.85 643.383C1836.7 643.383 1843.88 636.209 1843.88 627.359C1843.88 618.509 1836.71 611.335 1827.85 611.335C1824.46 611.335 1821.32 612.391 1818.73 614.192L1802.96 597.364C1804.29 596.1 1805.62 594.818 1806.92 593.513C1823.44 576.989 1836.67 558.052 1846.3 537.496L1863.73 545.545C1863.42 546.801 1863.25 548.117 1863.25 549.469C1863.25 558.319 1870.42 565.493 1879.27 565.493C1888.12 565.493 1895.3 558.319 1895.3 549.469C1895.3 540.62 1888.12 533.445 1879.27 533.445C1872.41 533.445 1866.55 537.762 1864.27 543.833L1847.05 535.88C1857.67 512.629 1863.69 487.355 1864.63 461.184L1883.41 461.796C1883.64 470.445 1890.71 477.386 1899.42 477.386C1908.27 477.386 1915.45 470.212 1915.45 461.362C1915.45 452.513 1908.27 445.342 1899.42 445.342ZM1859.42 453.887C1859.42 455.674 1859.4 457.46 1859.35 459.239L1804.06 457.441C1804.09 456.259 1804.11 455.073 1804.11 453.887C1804.11 437.593 1801.24 421.958 1795.99 407.453L1847.99 388.308C1855.5 409.054 1859.42 431.167 1859.42 453.887ZM1801.39 457.356L1678.06 453.346C1678.02 452.542 1677.89 451.76 1677.68 451.012L1793.48 408.376C1798.62 422.591 1801.43 437.915 1801.43 453.887C1801.44 455.047 1801.42 456.204 1801.39 457.356ZM1533.2 450.419L1656.54 454.428C1656.58 455.233 1656.71 456.015 1656.92 456.763L1541.12 499.399C1535.97 485.183 1533.16 469.86 1533.16 453.887C1533.16 452.727 1533.17 451.571 1533.2 450.419ZM1675.74 447.195L1765.73 362.868C1777.41 375.482 1786.69 390.335 1792.86 406.708L1677.06 449.34C1676.71 448.573 1676.26 447.854 1675.74 447.195ZM1674.52 445.894C1673.83 445.264 1673.05 444.723 1672.2 444.293L1719.08 330.148C1736.35 337.405 1751.8 348.177 1764.52 361.563L1674.52 445.894ZM1670.56 443.615C1669.91 443.411 1669.23 443.266 1668.54 443.185L1672.55 319.861C1688.36 320.472 1703.47 323.83 1717.43 329.474L1670.56 443.615ZM1666.76 443.126C1666 443.163 1665.27 443.278 1664.57 443.463L1623.55 327.08C1637.27 322.333 1651.99 319.746 1667.3 319.746C1668.46 319.746 1669.61 319.761 1670.77 319.791L1666.76 443.126ZM1662.89 444.056C1662.07 444.423 1661.3 444.893 1660.61 445.445L1576.28 355.452C1589.34 343.364 1604.81 333.836 1621.87 327.677L1662.89 444.056ZM1659.31 446.661C1658.78 447.247 1658.31 447.891 1657.93 448.581L1545.9 396.869C1553.06 381.705 1562.96 368.085 1574.98 356.668L1659.31 446.661ZM1657.17 450.193C1656.89 450.971 1656.7 451.794 1656.6 452.646L1533.27 448.636C1533.96 430.815 1538.14 413.868 1545.15 398.474L1657.17 450.193ZM1657.53 458.431C1657.82 459.05 1658.16 459.639 1658.56 460.187L1657.83 461.54L1568.86 544.904C1557.19 532.289 1547.91 517.436 1541.74 501.063L1657.53 458.431ZM1655.14 466.502L1599.28 569.455C1588.49 563.081 1578.66 555.243 1570.07 546.208L1655.14 466.502ZM1661.21 462.774C1661.59 463.034 1661.98 463.267 1662.39 463.478L1615.52 577.623C1611.01 575.725 1606.62 573.587 1602.37 571.226L1661.21 462.774ZM1664.04 464.16C1664.69 464.364 1665.36 464.508 1666.06 464.59L1662.05 587.914C1646.24 587.302 1631.12 583.945 1617.17 578.301L1664.04 464.16ZM1667.3 588.025C1666.14 588.025 1664.98 588.01 1663.83 587.981L1667.84 464.646C1668.59 464.609 1669.32 464.494 1670.03 464.308L1711.05 580.691C1697.33 585.438 1682.61 588.025 1667.3 588.025ZM1671.71 463.715C1672.3 463.449 1672.86 463.137 1673.39 462.774L1732.22 571.226C1726.01 574.68 1719.49 577.656 1712.72 580.098L1671.71 463.715ZM1681.61 470.46L1758.32 552.326C1751.3 558.819 1743.59 564.571 1735.32 569.459L1681.61 470.46ZM1678.25 464.275L1676.04 460.187C1676.27 459.869 1676.48 459.539 1676.67 459.194L1788.69 510.906C1781.54 526.07 1771.64 539.689 1759.62 551.107L1678.25 464.275ZM1677.42 457.582C1677.71 456.8 1677.9 455.978 1678 455.129L1801.32 459.139C1800.64 476.964 1796.46 493.907 1789.45 509.301L1677.42 457.582ZM1614.51 580.094L1593.45 631.365C1587.03 628.693 1580.76 625.669 1574.66 622.304L1601.1 573.576C1605.43 575.981 1609.9 578.164 1614.51 580.094ZM1616.15 580.769C1630.4 586.532 1645.83 589.96 1661.97 590.582L1660.17 645.881C1637.53 645.062 1615.59 640.337 1595.1 632.036L1616.15 580.769ZM1663.74 590.649C1664.93 590.679 1666.11 590.693 1667.3 590.693C1682.92 590.693 1697.94 588.055 1711.93 583.207L1730.36 635.468C1710.35 642.398 1689.1 646.007 1667.3 646.007C1665.51 646.007 1663.73 645.981 1661.95 645.933L1663.74 590.649ZM1713.61 582.618C1720.51 580.128 1727.16 577.093 1733.5 573.576L1759.94 622.304C1750.98 627.248 1741.66 631.454 1732.04 634.886L1713.61 582.618ZM1847.38 386.637L1795.37 405.785C1789.07 389.076 1779.6 373.919 1767.68 361.044L1808.1 323.17C1825.45 341.818 1838.69 363.342 1847.38 386.637ZM1803.15 318.034C1804.41 319.298 1805.66 320.58 1806.88 321.873L1766.47 359.744C1753.49 346.076 1737.72 335.085 1720.09 327.68L1741.14 276.41C1764.05 285.937 1785.08 299.964 1803.15 318.034ZM1739.5 275.735L1718.44 327.006C1704.19 321.243 1688.77 317.815 1672.63 317.193L1674.43 261.89C1697.06 262.709 1719.01 267.434 1739.5 275.735ZM1667.3 261.76C1669.08 261.76 1670.87 261.786 1672.65 261.834L1670.85 317.122C1669.67 317.093 1668.49 317.078 1667.3 317.078C1651.67 317.078 1636.66 319.716 1622.66 324.564L1604.24 272.304C1624.25 265.37 1645.5 261.76 1667.3 261.76ZM1602.56 272.889L1620.98 325.153C1603.57 331.438 1587.78 341.162 1574.45 353.499L1536.58 313.079C1555.9 295.113 1578.3 281.55 1602.56 272.889ZM1531.44 318.034C1532.71 316.77 1533.99 315.529 1535.28 314.302L1573.15 354.715C1560.89 366.366 1550.77 380.267 1543.48 395.746L1493.15 372.514C1502.5 352.521 1515.37 334.103 1531.44 318.034ZM1492.4 374.13L1542.73 397.362C1535.57 413.071 1531.31 430.363 1530.6 448.555L1475.3 446.757C1476.22 421.313 1482.07 396.735 1492.4 374.13ZM1475.17 453.887C1475.17 452.101 1475.2 450.315 1475.24 448.536L1530.53 450.334C1530.5 451.516 1530.49 452.698 1530.49 453.887C1530.49 470.182 1533.36 485.817 1538.61 500.322L1486.61 519.466C1479.09 498.721 1475.17 476.604 1475.17 453.887ZM1487.22 521.138L1539.23 501.99C1545.52 518.699 1555 533.856 1566.91 546.731L1526.49 584.605C1509.15 565.957 1495.91 544.433 1487.22 521.138ZM1531.44 589.741C1530.18 588.477 1528.94 587.195 1527.71 585.905L1568.13 548.035C1576.9 557.277 1586.96 565.293 1598.01 571.808L1571.56 620.555C1557.07 612.198 1543.59 601.885 1531.44 589.741ZM1858.17 803.358H1476.43L1572.11 627.003C1578.38 630.461 1584.82 633.567 1591.42 636.313L1584.67 652.744C1583.14 652.259 1581.51 651.996 1579.82 651.996C1570.97 651.996 1563.79 659.17 1563.79 668.02C1563.79 676.87 1570.97 684.044 1579.82 684.044C1588.67 684.044 1595.84 676.87 1595.84 668.02C1595.84 661.49 1591.94 655.876 1586.34 653.378L1593.07 636.983C1614.14 645.522 1636.71 650.38 1659.99 651.221L1659.45 668.027C1650.77 668.224 1643.8 675.317 1643.8 684.044C1643.8 692.894 1650.97 700.068 1659.82 700.068C1668.68 700.068 1675.85 692.894 1675.85 684.044C1675.85 675.669 1669.42 668.798 1661.23 668.083L1661.78 651.277C1663.61 651.329 1665.46 651.355 1667.3 651.355C1689.72 651.355 1711.56 647.641 1732.14 640.515L1737.89 656.854C1732.44 659.411 1728.66 664.948 1728.66 671.37C1728.66 680.22 1735.84 687.394 1744.69 687.394C1753.54 687.394 1760.71 680.22 1760.71 671.37C1760.71 662.52 1753.54 655.346 1744.69 655.346C1742.89 655.346 1741.16 655.646 1739.55 656.195L1733.81 639.929C1743.7 636.401 1753.28 632.084 1762.49 627.007L1858.17 803.358ZM1763.04 620.552L1736.59 571.804C1745.07 566.805 1752.96 560.917 1760.14 554.272L1798.02 594.692C1787.25 604.709 1775.51 613.358 1763.04 620.552ZM1803.15 589.741C1801.89 591.005 1800.61 592.246 1799.31 593.473L1761.44 553.06C1773.71 541.409 1783.82 527.508 1791.11 512.029L1841.44 535.261C1832.09 555.25 1819.22 573.668 1803.15 589.741ZM1842.2 533.645L1791.87 510.413C1799.03 494.704 1803.29 477.409 1803.99 459.22L1859.29 461.018C1858.37 486.462 1852.52 511.039 1842.2 533.645Z" fill="#5057EA"/>
<path d="M1430.82 670.578H1315.3V823.908H1430.82V670.578Z" fill="#5057EA"/>
<path d="M1489.34 425.949H1314.72V988.793H1489.34V425.949Z" fill="#5057EA"/>
<path d="M1502.38 429.284H1301.67V434.987H1502.38V429.284Z" fill="#5057EA"/>
<path d="M1496.95 508.346H1307.1V514.03H1496.95V508.346Z" fill="#5057EA"/>
<path d="M1496.95 584.912H1307.1V590.597H1496.95V584.912Z" fill="#5057EA"/>
<path d="M1496.95 661.479H1307.1V667.164H1496.95V661.479Z" fill="#5057EA"/>
<path d="M1496.95 738.047H1307.1V743.732H1496.95V738.047Z" fill="#5057EA"/>
<path d="M1496.95 814.613H1307.1V820.298H1496.95V814.613Z" fill="#5057EA"/>
<path d="M1496.95 891.181H1307.1V896.865H1496.95V891.181Z" fill="#5057EA"/>
<path d="M1509.02 413.735H1295.04V429.285H1509.02V413.735Z" fill="#5057EA"/>
<path opacity="0.29" d="M1348.57 453.477H1330.43V498.44H1348.57V453.477Z" fill="#5057EA"/>
<path d="M1389.16 453.477H1371.01V498.44H1389.16V453.477Z" fill="#5057EA"/>
<path d="M1429.74 453.477H1411.6V498.44H1429.74V453.477Z" fill="#5057EA"/>
<path d="M1470.32 453.477H1452.18V498.44H1470.32V453.477Z" fill="#5057EA"/>
<path d="M1348.57 526.989H1330.43V571.953H1348.57V526.989Z" fill="#5057EA"/>
<path opacity="0.29" d="M1389.16 526.989H1371.01V571.953H1389.16V526.989Z" fill="#5057EA"/>
<path d="M1429.74 526.989H1411.6V571.953H1429.74V526.989Z" fill="#5057EA"/>
<path d="M1470.32 526.99H1452.18V571.954H1470.32V526.99Z" fill="#5057EA"/>
<path d="M1348.57 603.557H1330.43V648.52H1348.57V603.557Z" fill="#5057EA"/>
<path d="M1389.16 603.557H1371.01V648.52H1389.16V603.557Z" fill="#5057EA"/>
<path d="M1429.74 603.557H1411.6V648.52H1429.74V603.557Z" fill="#5057EA"/>
<path opacity="0.29" d="M1470.32 603.557H1452.18V648.52H1470.32V603.557Z" fill="#5057EA"/>
<path d="M1348.57 680.124H1330.43V725.087H1348.57V680.124Z" fill="#5057EA"/>
<path opacity="0.29" d="M1389.16 680.124H1371.01V725.087H1389.16V680.124Z" fill="#5057EA"/>
<path opacity="0.29" d="M1429.74 680.124H1411.6V725.087H1429.74V680.124Z" fill="#5057EA"/>
<path d="M1470.32 680.124H1452.18V725.087H1470.32V680.124Z" fill="#5057EA"/>
<path opacity="0.29" d="M1348.57 756.691H1330.43V801.655H1348.57V756.691Z" fill="#5057EA"/>
<path d="M1389.16 756.691H1371.01V801.655H1389.16V756.691Z" fill="#5057EA"/>
<path d="M1429.74 756.691H1411.6V801.655H1429.74V756.691Z" fill="#5057EA"/>
<path d="M1470.32 756.691H1452.18V801.655H1470.32V756.691Z" fill="#5057EA"/>
<path d="M1348.57 833.257H1330.43V878.22H1348.57V833.257Z" fill="#5057EA"/>
<path d="M1389.16 833.257H1371.01V878.22H1389.16V833.257Z" fill="#5057EA"/>
<path opacity="0.29" d="M1429.74 833.257H1411.6V878.22H1429.74V833.257Z" fill="#5057EA"/>
<path d="M1470.32 833.258H1452.18V878.221H1470.32V833.258Z" fill="#5057EA"/>
<path d="M1348.57 909.825H1330.43V954.788H1348.57V909.825Z" fill="#5057EA"/>
<path opacity="0.29" d="M1389.16 909.825H1371.01V954.788H1389.16V909.825Z" fill="#5057EA"/>
<path d="M1429.74 909.825H1411.6V954.788H1429.74V909.825Z" fill="#5057EA"/>
<path opacity="0.29" d="M1470.32 909.825H1452.18V954.788H1470.32V909.825Z" fill="#5057EA"/>
<path d="M1385.13 392.278H1325.74V421.51H1385.13V392.278Z" fill="#5057EA"/>
<path d="M1389.16 391.444H1321.71V396.44H1389.16V391.444Z" fill="#5057EA"/>
<path d="M1064.45 988.794H831.84V454.015L1064.45 397.119V988.794Z" fill="#5057EA"/>
<path d="M842.057 444.603H821.619V988.795H842.057V444.603Z" fill="#5057EA"/>
<path d="M900.209 429.267H879.771V988.794H900.209V429.267Z" fill="#5057EA"/>
<path d="M958.364 413.34H937.926V988.795H958.364V413.34Z" fill="#5057EA"/>
<path d="M1016.51 400.361H996.074V988.794H1016.51V400.361Z" fill="#5057EA"/>
<path d="M1074.66 386.561H1054.23V988.794H1074.66V386.561Z" fill="#5057EA"/>
<path opacity="0.29" d="M874.479 490.27H847.352V531.597H874.479V490.27Z" fill="#5057EA"/>
<path opacity="0.29" d="M932.629 490.27H905.502V531.597H932.629V490.27Z" fill="#5057EA"/>
<path d="M990.783 490.27H963.656V531.597H990.783V490.27Z" fill="#5057EA"/>
<path opacity="0.29" d="M1048.93 490.27H1021.81V531.597H1048.93V490.27Z" fill="#5057EA"/>
<path d="M874.479 562.233H847.352V603.561H874.479V562.233Z" fill="#5057EA"/>
<path d="M932.629 562.234H905.502V603.562H932.629V562.234Z" fill="#5057EA"/>
<path opacity="0.29" d="M990.783 562.234H963.656V603.562H990.783V562.234Z" fill="#5057EA"/>
<path opacity="0.29" d="M1048.93 562.233H1021.81V603.561H1048.93V562.233Z" fill="#5057EA"/>
<path opacity="0.29" d="M874.479 634.198H847.352V675.526H874.479V634.198Z" fill="#5057EA"/>
<path opacity="0.29" d="M932.629 634.197H905.502V675.525H932.629V634.197Z" fill="#5057EA"/>
<path opacity="0.29" d="M990.783 634.197H963.656V675.525H990.783V634.197Z" fill="#5057EA"/>
<path d="M1048.93 634.198H1021.81V675.526H1048.93V634.198Z" fill="#5057EA"/>
<path opacity="0.29" d="M874.479 706.162H847.352V747.49H874.479V706.162Z" fill="#5057EA"/>
<path d="M932.629 706.162H905.502V747.49H932.629V706.162Z" fill="#5057EA"/>
<path opacity="0.29" d="M990.783 706.162H963.656V747.49H990.783V706.162Z" fill="#5057EA"/>
<path opacity="0.29" d="M1048.93 706.162H1021.81V747.49H1048.93V706.162Z" fill="#5057EA"/>
<path opacity="0.29" d="M874.479 778.123H847.352V819.451H874.479V778.123Z" fill="#5057EA"/>
<path opacity="0.29" d="M932.629 778.123H905.502V819.451H932.629V778.123Z" fill="#5057EA"/>
<path d="M990.783 778.123H963.656V819.451H990.783V778.123Z" fill="#5057EA"/>
<path opacity="0.29" d="M1048.93 778.123H1021.81V819.451H1048.93V778.123Z" fill="#5057EA"/>
<path d="M874.479 850.088H847.352V891.416H874.479V850.088Z" fill="#5057EA"/>
<path d="M932.629 850.088H905.502V891.416H932.629V850.088Z" fill="#5057EA"/>
<path opacity="0.29" d="M990.783 850.087H963.656V891.415H990.783V850.087Z" fill="#5057EA"/>
<path opacity="0.29" d="M1048.93 850.088H1021.81V891.416H1048.93V850.088Z" fill="#5057EA"/>
<path opacity="0.29" d="M874.479 922.048H847.352V963.376H874.479V922.048Z" fill="#5057EA"/>
<path d="M932.629 922.048H905.502V963.376H932.629V922.048Z" fill="#5057EA"/>
<path opacity="0.29" d="M990.783 922.048H963.656V963.376H990.783V922.048Z" fill="#5057EA"/>
<path d="M1048.93 922.048H1021.81V963.376H1048.93V922.048Z" fill="#5057EA"/>
<path d="M168.295 479.634V485.185H162.766V501.009H260.094V988.794H100.378V526.457V501.009V485.185H94.582V479.634H168.295Z" fill="#5057EA"/>
<path d="M577.193 701.198H440.387V988.792H577.193V701.198Z" fill="#5057EA"/>
<path d="M54.4864 708.93H-66.6992V988.793H54.4864V708.93Z" fill="#5057EA"/>
<path d="M70.8001 704.319H-58.3828V714.666H70.8001V704.319Z" fill="#5057EA"/>
<path d="M177.335 828.966H41.4668V988.793H177.335V828.966Z" fill="#5057EA"/>
<path d="M482.026 942.71H215.252V988.792H482.026V942.71Z" fill="#5057EA"/>
<path d="M955.011 942.71H688.236V988.792H955.011V942.71Z" fill="#5057EA"/>
<path d="M471.632 807.428H370.236L327.355 965.754H471.632V807.428Z" fill="#5057EA"/>
<path d="M521.318 577.06H518.494V752.696H521.318V577.06Z" fill="#5057EA"/>
<path d="M536.39 636.494H532.625V740.129H536.39V636.494Z" fill="#5057EA"/>
<path d="M563.744 654.861H512.443V706.162H563.744V654.861Z" fill="#5057EA"/>
<path d="M571.725 650.873H503.781V655.468H571.725V650.873Z" fill="#5057EA"/>
<path d="M718.066 840.451H552.307V988.79H718.066V840.451Z" fill="#5057EA"/>
<path d="M792.863 677.156H686.367V963.379H792.863V677.156Z" fill="#5057EA"/>
<path d="M1272.43 730.964H1102.29V988.792H1272.43V730.964Z" fill="#5057EA"/>
<path d="M1242.92 893.789H1048.93V988.793H1242.92V893.789Z" fill="#5057EA"/>
<path d="M1389.16 954.789H1263.02V988.794H1389.16V954.789Z" fill="#5057EA"/>
<path d="M1662.4 893.789H1457.3V988.793H1662.4V893.789Z" fill="#5057EA"/>
<path d="M1539.01 988.795H1794.23V645.057H1539.01V988.795Z" fill="#5057EA"/>
<path d="M1532.42 645.058H1809.12V631.872H1532.42V645.058Z" fill="#5057EA"/>
<path d="M1670.77 665.773H1782.93V596.085H1670.77V665.773Z" fill="#5057EA"/>
<path d="M1615.3 638.463H1634.13V596.083H1615.3V638.463Z" fill="#5057EA"/>
<path d="M1575.74 638.463H1596.46V596.083H1575.74V638.463Z" fill="#5057EA"/>
<path d="M1989.61 680.509H1886.51V988.793H1989.61V680.509Z" fill="#5057EA"/>
<path d="M1938.11 988.793H1792.87V823.908L1915.45 878.221L1938.11 988.793Z" fill="#5057EA"/>
<path opacity="0.5" d="M477.369 400.36H471.629V432.138H477.369V400.36Z" fill="white"/>
<path opacity="0.5" d="M497.156 400.36H491.416V432.138H497.156V400.36Z" fill="white"/>
<path opacity="0.5" d="M516.942 400.36H511.201V432.138H516.942V400.36Z" fill="white"/>
<path opacity="0.5" d="M536.731 400.36H530.99V432.138H536.731V400.36Z" fill="white"/>
<path opacity="0.5" d="M556.518 400.36H550.777V432.138H556.518V400.36Z" fill="white"/>
<path opacity="0.5" d="M576.303 400.36H570.562V432.138H576.303V400.36Z" fill="white"/>
<path opacity="0.5" d="M596.086 400.36H590.346V432.138H596.086V400.36Z" fill="white"/>
<path opacity="0.5" d="M615.869 400.36H610.129V432.138H615.869V400.36Z" fill="white"/>
<path opacity="0.5" d="M635.656 400.36H629.916V432.138H635.656V400.36Z" fill="white"/>
<path opacity="0.5" d="M655.44 400.36H649.699V432.138H655.44V400.36Z" fill="white"/>
<path opacity="0.5" d="M675.221 400.36H669.48V432.138H675.221V400.36Z" fill="white"/>
<path opacity="0.5" d="M477.369 444.601H471.629V476.378H477.369V444.601Z" fill="white"/>
<path opacity="0.5" d="M497.156 444.601H491.416V476.378H497.156V444.601Z" fill="white"/>
<path opacity="0.5" d="M516.942 444.601H511.201V476.378H516.942V444.601Z" fill="white"/>
<path opacity="0.5" d="M536.731 444.601H530.99V476.378H536.731V444.601Z" fill="white"/>
<path opacity="0.5" d="M556.518 444.601H550.777V476.378H556.518V444.601Z" fill="white"/>
<path opacity="0.5" d="M576.303 444.601H570.562V476.378H576.303V444.601Z" fill="white"/>
<path opacity="0.5" d="M596.086 444.601H590.346V476.378H596.086V444.601Z" fill="white"/>
<path opacity="0.5" d="M615.869 444.601H610.129V476.378H615.869V444.601Z" fill="white"/>
<path opacity="0.5" d="M635.656 444.601H629.916V476.378H635.656V444.601Z" fill="white"/>
<path opacity="0.5" d="M655.44 444.601H649.699V476.378H655.44V444.601Z" fill="white"/>
<path opacity="0.5" d="M675.221 444.601H669.48V476.378H675.221V444.601Z" fill="white"/>
<path opacity="0.5" d="M477.369 488.842H471.629V520.62H477.369V488.842Z" fill="white"/>
<path opacity="0.5" d="M497.156 488.842H491.416V520.62H497.156V488.842Z" fill="white"/>
<path opacity="0.5" d="M516.942 488.842H511.201V520.62H516.942V488.842Z" fill="white"/>
<path opacity="0.5" d="M536.731 488.842H530.99V520.62H536.731V488.842Z" fill="white"/>
<path opacity="0.5" d="M556.518 488.842H550.777V520.62H556.518V488.842Z" fill="white"/>
<path opacity="0.5" d="M576.303 488.842H570.562V520.62H576.303V488.842Z" fill="white"/>
<path opacity="0.5" d="M596.086 488.842H590.346V520.62H596.086V488.842Z" fill="white"/>
<path opacity="0.5" d="M615.869 488.842H610.129V520.62H615.869V488.842Z" fill="white"/>
<path opacity="0.5" d="M635.656 488.842H629.916V520.62H635.656V488.842Z" fill="white"/>
<path opacity="0.5" d="M655.44 488.842H649.699V520.62H655.44V488.842Z" fill="white"/>
<path opacity="0.5" d="M675.221 488.842H669.48V520.62H675.221V488.842Z" fill="white"/>
<path opacity="0.5" d="M536.731 533.081H530.99V564.859H536.731V533.081Z" fill="white"/>
<path opacity="0.5" d="M556.518 533.081H550.777V564.859H556.518V533.081Z" fill="white"/>
<path opacity="0.5" d="M576.303 533.081H570.562V564.859H576.303V533.081Z" fill="white"/>
<path opacity="0.5" d="M596.086 533.081H590.346V564.859H596.086V533.081Z" fill="white"/>
<path opacity="0.5" d="M615.869 533.081H610.129V564.859H615.869V533.081Z" fill="white"/>
<path opacity="0.5" d="M635.656 533.081H629.916V564.859H635.656V533.081Z" fill="white"/>
<path opacity="0.5" d="M655.44 533.081H649.699V564.859H655.44V533.081Z" fill="white"/>
<path opacity="0.5" d="M675.221 533.081H669.48V564.859H675.221V533.081Z" fill="white"/>
<path opacity="0.5" d="M556.518 579.775H550.777V611.553H556.518V579.775Z" fill="white"/>
<path opacity="0.5" d="M576.303 579.775H570.562V611.553H576.303V579.775Z" fill="white"/>
<path opacity="0.5" d="M596.086 579.775H590.346V611.553H596.086V579.775Z" fill="white"/>
<path opacity="0.5" d="M615.869 579.775H610.129V611.553H615.869V579.775Z" fill="white"/>
<path opacity="0.5" d="M635.656 579.775H629.916V611.553H635.656V579.775Z" fill="white"/>
<path opacity="0.5" d="M655.44 579.775H649.699V611.553H655.44V579.775Z" fill="white"/>
<path opacity="0.5" d="M675.221 579.775H669.48V611.553H675.221V579.775Z" fill="white"/>
<path opacity="0.33" d="M867.687 479.231H854.123V513.633H867.687V479.231Z" fill="white"/>
<path opacity="0.33" d="M867.687 545.033H854.123V579.435H867.687V545.033Z" fill="white"/>
<path opacity="0.33" d="M867.687 610.83H854.123V645.232H867.687V610.83Z" fill="white"/>
<path opacity="0.33" d="M867.687 676.632H854.123V711.033H867.687V676.632Z" fill="white"/>
<path opacity="0.33" d="M867.687 738.669H854.123V773.07H867.687V738.669Z" fill="white"/>
<path opacity="0.33" d="M867.687 804.467H854.123V838.868H867.687V804.467Z" fill="white"/>
<path opacity="0.33" d="M925.843 479.231H912.279V513.633H925.843V479.231Z" fill="white"/>
<path opacity="0.33" d="M925.843 545.033H912.279V579.435H925.843V545.033Z" fill="white"/>
<path opacity="0.33" d="M925.843 610.83H912.279V645.232H925.843V610.83Z" fill="white"/>
<path opacity="0.33" d="M925.843 676.632H912.279V711.033H925.843V676.632Z" fill="white"/>
<path opacity="0.33" d="M925.843 738.669H912.279V773.07H925.843V738.669Z" fill="white"/>
<path opacity="0.33" d="M925.843 804.467H912.279V838.868H925.843V804.467Z" fill="white"/>
<path opacity="0.33" d="M983.993 479.231H970.43V513.633H983.993V479.231Z" fill="white"/>
<path opacity="0.33" d="M983.993 545.033H970.43V579.435H983.993V545.033Z" fill="white"/>
<path opacity="0.33" d="M983.993 610.83H970.43V645.232H983.993V610.83Z" fill="white"/>
<path opacity="0.33" d="M983.993 676.632H970.43V711.033H983.993V676.632Z" fill="white"/>
<path opacity="0.33" d="M983.993 738.669H970.43V773.07H983.993V738.669Z" fill="white"/>
<path opacity="0.33" d="M983.993 804.467H970.43V838.868H983.993V804.467Z" fill="white"/>
<path opacity="0.33" d="M1042.15 479.231H1028.59V513.633H1042.15V479.231Z" fill="white"/>
<path opacity="0.33" d="M1042.15 545.033H1028.59V579.435H1042.15V545.033Z" fill="white"/>
<path opacity="0.33" d="M1042.15 610.83H1028.59V645.232H1042.15V610.83Z" fill="white"/>
<path opacity="0.33" d="M1042.15 676.632H1028.59V711.033H1042.15V676.632Z" fill="white"/>
<path opacity="0.33" d="M1042.15 738.668H1028.59V773.07H1042.15V738.668Z" fill="white"/>
<path opacity="0.33" d="M1042.15 804.467H1028.59V838.868H1042.15V804.467Z" fill="white"/>
<path opacity="0.5" d="M646.944 -0.49707H635.66V29.6094H646.944V-0.49707Z" fill="white"/>
<path opacity="0.5" d="M674.782 -0.49707H663.498V29.6094H674.782V-0.49707Z" fill="white"/>
<path opacity="0.5" d="M702.628 -0.49707H691.344V29.6094H702.628V-0.49707Z" fill="white"/>
<path opacity="0.5" d="M730.476 -0.49707H719.191V29.6094H730.476V-0.49707Z" fill="white"/>
<path opacity="0.5" d="M646.944 49.6445H635.66V79.751H646.944V49.6445Z" fill="white"/>
<path opacity="0.5" d="M674.782 49.6445H663.498V79.751H674.782V49.6445Z" fill="white"/>
<path opacity="0.5" d="M702.628 49.6445H691.344V79.751H702.628V49.6445Z" fill="white"/>
<path opacity="0.5" d="M730.476 49.6445H719.191V79.751H730.476V49.6445Z" fill="white"/>
<path opacity="0.5" d="M646.944 99.7842H635.66V129.891H646.944V99.7842Z" fill="white"/>
<path opacity="0.5" d="M674.782 99.7842H663.498V129.891H674.782V99.7842Z" fill="white"/>
<path opacity="0.5" d="M762.068 -0.49707H750.783V29.6094H762.068V-0.49707Z" fill="white"/>
<path opacity="0.5" d="M1234.54 516.009H1223.43V558.808H1234.54V516.009Z" fill="white"/>
<path opacity="0.5" d="M1268.56 516.008H1257.45V558.807H1268.56V516.008Z" fill="white"/>
<path opacity="0.5" d="M1300.59 516.008H1289.48V558.807H1300.59V516.008Z" fill="white"/>
<path opacity="0.33" d="M1339.5 453.476H1330.43V491.001H1339.5V453.476Z" fill="white"/>
<path opacity="0.33" d="M1384.62 453.476H1375.55V491.001H1384.62V453.476Z" fill="white"/>
<path opacity="0.33" d="M1429.74 453.476H1420.67V491.001H1429.74V453.476Z" fill="white"/>
<path opacity="0.33" d="M1474.85 453.476H1465.78V491.001H1474.85V453.476Z" fill="white"/>
<path opacity="0.33" d="M1339.5 530.71H1330.43V568.236H1339.5V530.71Z" fill="white"/>
<path opacity="0.33" d="M1384.62 530.71H1375.55V568.236H1384.62V530.71Z" fill="white"/>
<path opacity="0.33" d="M1429.74 530.71H1420.67V568.236H1429.74V530.71Z" fill="white"/>
<path opacity="0.33" d="M1474.85 530.71H1465.78V568.236H1474.85V530.71Z" fill="white"/>
<path opacity="0.33" d="M1339.5 609.863H1330.43V647.389H1339.5V609.863Z" fill="white"/>
<path opacity="0.33" d="M1384.62 609.863H1375.55V647.389H1384.62V609.863Z" fill="white"/>
<path opacity="0.33" d="M1429.74 609.863H1420.67V647.389H1429.74V609.863Z" fill="white"/>
<path opacity="0.33" d="M1474.85 609.863H1465.78V647.389H1474.85V609.863Z" fill="white"/>
<path opacity="0.33" d="M1339.5 689.021H1330.43V726.547H1339.5V689.021Z" fill="white"/>
<path opacity="0.33" d="M1384.62 689.021H1375.55V726.547H1384.62V689.021Z" fill="white"/>
<path opacity="0.33" d="M1429.74 689.021H1420.67V726.547H1429.74V689.021Z" fill="white"/>
<path opacity="0.33" d="M1474.85 689.021H1465.78V726.547H1474.85V689.021Z" fill="white"/>
<path opacity="0.33" d="M1339.5 760.918H1330.43V798.444H1339.5V760.918Z" fill="white"/>
<path opacity="0.33" d="M1384.62 760.918H1375.55V798.444H1384.62V760.918Z" fill="white"/>
<path opacity="0.33" d="M1429.74 760.918H1420.67V798.444H1429.74V760.918Z" fill="white"/>
<path opacity="0.33" d="M1339.5 841.113H1330.43V878.639H1339.5V841.113Z" fill="white"/>
<path opacity="0.33" d="M1384.62 841.113H1375.55V878.639H1384.62V841.113Z" fill="white"/>
<path opacity="0.33" d="M1429.74 841.113H1420.67V878.639H1429.74V841.113Z" fill="white"/>
<path opacity="0.33" d="M1474.85 760.918H1465.78V798.444H1474.85V760.918Z" fill="white"/>
</g>
</g>
<defs>
<clipPath id="clip0_629_461">
<rect width="1920" height="989" fill="white"/>
</clipPath>
</defs>
</svg>
